<?xml version="1.0" encoding="utf-8"?>
<!-- Svg Vector Icons : http://www.onlinewebfonts.com/icon -->
<!DOCTYPE svg PUBLIC "-//W3C//DTD SVG 1.1//EN" "http://www.w3.org/Graphics/SVG/1.1/DTD/svg11.dtd">
<svg version="1.1" xmlns="http://www.w3.org/2000/svg" xmlns:xlink="http://www.w3.org/1999/xlink" x="0px" y="0px" viewBox="0 0 256 256" enable-background="new 0 0 256 256" xml:space="preserve">
<metadata> Svg Vector Icons : http://www.onlinewebfonts.com/icon </metadata>
<g><g><g><path fill="#000000" d="M20.3,38c-2.6,1.3-4.5,2.8-6.2,4.9c-4.5,5.7-4.2,0.2-4.1,88.4l0.2,79.1l1.8,3c1.2,1.8,3,3.6,4.8,4.8l3,1.8h92.1h92.1l3.6-1.8c4.4-2.2,9.9-7.6,11.7-11.6c0.7-1.7,7.1-24.5,14.1-50.9c11.6-43.4,12.8-48.1,12.5-51.4c-0.4-4.7-2.8-8.5-6.7-11c-2.8-1.8-3.3-1.8-10.7-2l-7.7-0.2l-0.4-4.7c-0.5-7-2.3-11.1-6.7-15.6c-2.6-2.6-4.8-4.1-7.3-5.1l-3.6-1.5l-66.1-0.2l-66.1-0.2l-0.2-7.4c-0.2-6.2-0.4-7.8-1.6-9.9c-2.1-4.1-4.7-6.7-8.7-8.7l-3.7-1.8H40.2H24.1L20.3,38z M57.1,44.6c1.6,0.8,3.3,2.3,4.2,3.8c1.6,2.4,1.6,2.7,1.8,13l0.2,10.5h69.3c69.2,0,69.3,0,72,1.3c3,1.5,6.1,4.6,7.3,7.6c0.5,1.2,0.8,3.8,0.8,6v3.9h-77.5c-49.5,0-78.5,0.2-80.6,0.6c-1.8,0.4-4.7,1.3-6.5,2.1c-4,1.8-9.8,7.4-11.6,11.3c-0.7,1.5-5.3,17.9-10.2,36.2l-9,33.4l-0.2-60.1c-0.1-42.1,0-60.9,0.5-62.5c0.8-2.8,3.9-6.4,6.4-7.4c1.3-0.6,5.6-0.8,16-0.8C53.4,43.4,54.6,43.4,57.1,44.6z M234.9,99.4c2.1,1,3.9,3.9,3.9,6.2c0,1.9-25.4,96.2-26.4,98.3c-1.4,2.7-5,5.9-8.4,7.5l-3.1,1.5h-89.2c-76.9,0-89.4-0.1-90.9-0.9c-2.1-1.1-3.9-4.7-3.6-7.2c0.5-3.9,25.4-95,26.5-97.3c1.5-3,6.1-7,9.3-8.1c2.2-0.7,14.5-0.9,91.1-0.9C223.9,98.5,233.1,98.6,234.9,99.4z"/></g></g></g>
</svg>